<svg width="605" height="605" viewBox="0 0 605 605" fill="none" xmlns="http://www.w3.org/2000/svg">
<path d="M322.825 590.681L389.877 417.291C392.603 410.135 385.516 403.255 378.566 406.282L209.709 481.28C203.439 484.032 202.894 492.84 208.618 496.417L246.505 520.224C251.139 523.114 251.957 529.582 248.141 533.435L202.758 581.186C199.487 584.626 199.623 589.993 203.031 593.296L212.025 601.965C215.432 605.268 220.748 605.13 224.018 601.69L269.401 553.939C273.081 549.948 279.486 550.498 282.621 555.04L307.697 592.332C311.513 598.112 320.236 597.011 322.689 590.681H322.825Z" fill="black"/>
<path d="M65.1111 464.488L247.46 436.415C254.956 435.314 257.273 425.544 251.276 421.003L102.589 310.914C97.0018 306.786 89.2336 310.639 89.0973 317.52L87.7344 362.518C87.5981 368.023 82.4193 371.876 77.2405 370.637L13.5954 354.812C9.09803 353.711 4.46434 356.463 3.23778 361.142L0.239515 373.39C-0.850764 377.931 1.87493 382.609 6.50862 383.848L70.1537 399.673C75.4688 400.912 78.1945 406.829 75.7414 411.783L56.2526 452.378C53.2543 458.571 58.4332 465.589 65.2474 464.626L65.1111 464.488Z" fill="black"/>
<path d="M44.3955 176.061L159.692 321.379C164.462 327.296 174.002 324.544 174.82 316.975L194.99 131.888C195.672 125.008 188.585 120.054 182.452 123.356L143.066 144.686C138.296 147.301 132.436 144.686 130.936 139.457L112.674 76.0183C111.311 71.4771 106.678 68.8625 102.18 70.101L90.1872 73.6789C85.6898 75.055 83.1004 79.7338 84.3269 84.275L102.589 147.714C104.088 152.943 100.409 158.31 95.0935 158.722L50.5283 162.025C43.714 162.576 40.1706 170.557 44.5318 175.924L44.3955 176.061Z" fill="black"/>
<path d="M281.531 13.6776L214.479 187.067C211.753 194.223 218.84 201.104 225.791 198.076L394.648 123.078C400.917 120.326 401.462 111.519 395.738 107.941L357.851 84.1344C353.217 81.2446 352.399 74.7769 356.215 70.9237L401.598 23.1727C404.869 19.7325 404.733 14.3656 401.326 11.063L392.331 2.39348C388.924 -0.909181 383.609 -0.771571 380.338 2.6687L334.955 50.4197C331.275 54.4104 324.87 53.86 321.735 49.3188L296.659 12.0263C292.843 6.24659 284.121 7.34748 281.668 13.6776H281.531Z" fill="black"/>
<path d="M539.247 139.868L356.898 167.941C349.402 169.041 347.085 178.812 353.082 183.353L501.769 293.442C507.356 297.57 515.125 293.717 515.261 286.836L516.624 241.838C516.76 236.333 521.939 232.48 527.118 233.719L590.763 249.544C595.26 250.645 599.894 247.893 601.12 243.214L604.119 230.966C605.209 226.425 602.483 221.746 597.849 220.508L534.204 204.683C528.889 203.444 526.164 197.527 528.617 192.573L548.106 151.978C551.104 145.785 545.925 138.767 539.111 139.73L539.247 139.868Z" fill="black"/>
<path d="M559.961 428.298L444.664 282.981C439.894 277.064 430.354 279.816 429.537 287.384L409.366 472.471C408.685 479.352 415.772 484.306 421.905 481.003L461.291 459.673C466.061 457.059 471.921 459.673 473.42 464.903L491.682 528.341C493.045 532.882 497.679 535.497 502.176 534.259L514.169 530.681C518.667 529.305 521.256 524.626 520.03 520.085L501.768 456.646C500.268 451.417 503.948 446.05 509.263 445.637L553.828 442.334C560.643 441.784 564.186 433.803 559.825 428.436L559.961 428.298Z" fill="black"/>
</svg>
