<svg width="1200" height="300" viewBox="0 0 1200 300" fill="none" xmlns="http://www.w3.org/2000/svg">
<g clip-path="url(#clip0_79_78)">
<path d="M1200 0H0V300H1200V0Z" fill="#0F1315"/>
<mask id="mask0_79_78" style="mask-type:luminance" maskUnits="userSpaceOnUse" x="375" y="85" width="450" height="92">
<path d="M824.97 85H375V176.25H824.97V85Z" fill="white"/>
</mask>
<g mask="url(#mask0_79_78)">
<path d="M423.592 174.839L434.242 147.569C434.512 146.894 433.822 146.234 433.147 146.519L406.342 158.309C405.742 158.579 405.682 159.404 406.237 159.749L413.047 163.979C413.482 164.249 413.572 164.864 413.212 165.239L405.802 172.964C405.487 173.294 405.502 173.804 405.832 174.119L407.812 176.024C408.142 176.339 408.652 176.324 408.967 175.994L416.377 168.269C416.737 167.894 417.352 167.939 417.637 168.374L422.152 175.004C422.527 175.544 423.352 175.454 423.592 174.839Z" fill="white"/>
<path d="M383.933 155.113L412.883 150.703C413.603 150.598 413.828 149.668 413.243 149.233L389.633 131.908C389.108 131.518 388.358 131.878 388.328 132.538L388.073 140.548C388.058 141.073 387.563 141.433 387.068 141.313L376.673 138.763C376.238 138.658 375.788 138.928 375.683 139.363L375.023 142.033C374.918 142.468 375.188 142.918 375.623 143.023L386.018 145.573C386.528 145.693 386.783 146.248 386.558 146.728L383.063 153.943C382.778 154.528 383.273 155.203 383.918 155.113H383.933Z" fill="white"/>
<path d="M381.188 110.894L399.488 133.754C399.938 134.324 400.853 134.054 400.943 133.334L404.138 104.234C404.213 103.574 403.523 103.109 402.938 103.424L395.873 107.219C395.408 107.459 394.853 107.219 394.703 106.724L391.718 96.4335C391.598 95.9985 391.133 95.7435 390.698 95.8785L388.058 96.6435C387.623 96.7635 387.368 97.2285 387.503 97.6635L390.488 107.954C390.638 108.449 390.278 108.959 389.768 109.004L381.773 109.589C381.113 109.634 380.783 110.399 381.188 110.909V110.894Z" fill="white"/>
<path d="M418.103 86.4131L407.453 113.683C407.183 114.358 407.873 115.018 408.548 114.733L435.353 102.943C435.953 102.673 436.013 101.848 435.458 101.503L428.648 97.2731C428.213 97.0031 428.123 96.3881 428.483 96.0131L435.893 88.2881C436.208 87.9581 436.193 87.4481 435.863 87.1331L433.883 85.2281C433.553 84.9131 433.043 84.9281 432.728 85.2581L425.318 92.9831C424.958 93.3581 424.343 93.3131 424.058 92.8781L419.543 86.2481C419.168 85.7081 418.343 85.7981 418.103 86.4131Z" fill="white"/>
<path d="M457.763 106.138L428.813 110.548C428.093 110.653 427.868 111.583 428.453 112.018L452.063 129.343C452.588 129.733 453.338 129.373 453.368 128.713L453.623 120.703C453.638 120.178 454.133 119.818 454.628 119.938L465.023 122.488C465.458 122.593 465.908 122.323 466.013 121.888L466.673 119.218C466.778 118.783 466.508 118.333 466.073 118.228L455.678 115.678C455.168 115.558 454.913 115.003 455.138 114.523L458.633 107.308C458.918 106.723 458.423 106.048 457.778 106.138H457.763Z" fill="white"/>
<path d="M460.508 150.344L442.208 127.484C441.758 126.914 440.843 127.184 440.753 127.904L437.558 157.004C437.483 157.664 438.173 158.129 438.758 157.814L445.823 154.019C446.288 153.779 446.843 154.019 446.993 154.514L449.978 164.804C450.098 165.239 450.563 165.494 450.998 165.359L453.638 164.594C454.073 164.474 454.328 164.009 454.193 163.574L451.208 153.284C451.058 152.789 451.418 152.279 451.928 152.234L459.923 151.649C460.583 151.604 460.913 150.839 460.508 150.329V150.344Z" fill="white"/>
<path d="M512.716 160.02C507.466 160.02 502.861 158.835 498.901 156.465C494.956 154.095 491.836 150.795 489.586 146.565C487.321 142.32 486.196 137.4 486.196 131.775C486.196 126.15 487.321 121.305 489.586 117.075C491.851 112.845 494.956 109.515 498.901 107.13C502.846 104.745 507.451 103.545 512.716 103.545C517.981 103.545 522.691 104.745 526.71 107.13C530.745 109.53 533.865 112.845 536.07 117.075C538.275 121.32 539.385 126.21 539.385 131.775C539.385 137.34 538.275 142.32 536.07 146.565C533.865 150.81 530.745 154.11 526.71 156.465C522.676 158.835 518.011 160.02 512.716 160.02ZM512.716 153.075C516.511 153.075 519.811 152.22 522.616 150.495C525.42 148.785 527.595 146.34 529.125 143.16C530.655 139.98 531.42 136.185 531.42 131.775C531.42 127.365 530.655 123.555 529.125 120.39C527.595 117.21 525.42 114.78 522.616 113.1C519.811 111.405 516.511 110.565 512.716 110.565C508.921 110.565 505.786 111.405 503.011 113.1C500.221 114.795 498.061 117.225 496.501 120.39C494.941 123.555 494.161 127.365 494.161 131.775C494.161 136.185 494.941 139.995 496.501 143.16C498.061 146.325 500.236 148.77 503.011 150.495C505.786 152.205 509.026 153.075 512.716 153.075Z" fill="white"/>
<path d="M543.69 176.235V119.76H550.71L551.49 125.85C552.27 124.65 553.29 123.525 554.565 122.46C555.84 121.395 557.34 120.525 559.05 119.85C560.76 119.175 562.8 118.83 565.14 118.83C568.935 118.83 572.25 119.73 575.085 121.515C577.92 123.315 580.125 125.76 581.715 128.85C583.305 131.94 584.1 135.495 584.1 139.5C584.1 143.505 583.29 146.97 581.685 150.075C580.065 153.165 577.845 155.595 575.01 157.365C572.175 159.135 568.86 160.02 565.065 160.02C561.99 160.02 559.305 159.405 556.995 158.19C554.685 156.975 552.84 155.265 551.49 153.075V176.25H543.69V176.235ZM563.895 153.225C566.235 153.225 568.335 152.655 570.18 151.515C572.025 150.375 573.48 148.77 574.545 146.715C575.61 144.66 576.15 142.26 576.15 139.5C576.15 136.74 575.61 134.265 574.545 132.21C573.48 130.155 572.025 128.535 570.18 127.38C568.335 126.21 566.235 125.625 563.895 125.625C561.405 125.625 559.23 126.21 557.385 127.38C555.54 128.55 554.115 130.17 553.095 132.21C552.075 134.265 551.58 136.695 551.58 139.5C551.58 142.305 552.09 144.645 553.095 146.685C554.115 148.71 555.54 150.315 557.385 151.485C559.23 152.655 561.405 153.24 563.895 153.24V153.225Z" fill="white"/>
<path d="M606.33 160.02C602.58 160.02 599.265 159.165 596.385 157.44C593.505 155.73 591.24 153.33 589.605 150.27C587.97 147.195 587.145 143.61 587.145 139.5C587.145 135.39 587.94 131.79 589.53 128.7C591.12 125.61 593.37 123.195 596.31 121.44C599.25 119.7 602.64 118.83 606.495 118.83C610.35 118.83 613.65 119.685 616.395 121.41C619.14 123.135 621.27 125.385 622.755 128.19C624.24 130.995 624.975 134.115 624.975 137.55V139.26C624.975 139.89 624.915 140.535 624.825 141.21H592.845V135.75H617.265C617.115 132.525 616.02 129.975 613.995 128.1C611.97 126.225 609.45 125.295 606.435 125.295C604.305 125.295 602.355 125.775 600.585 126.735C598.815 127.695 597.405 129.105 596.37 130.95C595.335 132.795 594.81 135.12 594.81 137.925V140.115C594.81 143.025 595.335 145.47 596.37 147.45C597.405 149.43 598.8 150.93 600.54 151.98C602.28 153.015 604.215 153.54 606.36 153.54C608.85 153.54 610.92 153 612.555 151.905C614.19 150.81 615.375 149.325 616.11 147.465H623.91C623.235 149.865 622.095 152.01 620.475 153.9C618.855 155.805 616.89 157.29 614.55 158.385C612.21 159.48 609.48 160.02 606.36 160.02H606.33Z" fill="white"/>
<path d="M629.025 159.075V119.76H636.045L636.51 126.465C637.755 124.08 639.51 122.205 641.775 120.84C644.04 119.49 646.68 118.815 649.695 118.815C652.86 118.815 655.575 119.445 657.81 120.69C660.045 121.935 661.77 123.825 663 126.345C664.215 128.865 664.83 132.03 664.83 135.825V159.075H657.03V136.605C657.03 132.96 656.22 130.2 654.615 128.295C652.995 126.39 650.655 125.445 647.595 125.445C645.57 125.445 643.74 125.94 642.135 126.93C640.53 127.92 639.24 129.345 638.28 131.22C637.32 133.095 636.84 135.375 636.84 138.09V159.075H629.04H629.025Z" fill="white"/>
<path d="M676.455 159.075L664.905 119.76H672.705L681.285 152.52H679.875L689.235 119.76H697.965L707.565 152.445L706.08 152.52L714.585 119.76H722.385L710.925 159.075H702.885L692.985 124.98H694.545L684.48 159.075H676.44H676.455Z" fill="white"/>
<path d="M741.36 160.02C737.61 160.02 734.265 159.165 731.295 157.44C728.325 155.73 726.015 153.315 724.35 150.225C722.685 147.135 721.86 143.55 721.86 139.5C721.86 135.45 722.7 131.715 724.395 128.625C726.09 125.535 728.415 123.12 731.37 121.41C734.34 119.7 737.655 118.83 741.36 118.83C745.065 118.83 748.425 119.685 751.35 121.41C754.275 123.135 756.57 125.52 758.295 128.58C760.005 131.655 760.875 135.27 760.875 139.425C760.875 143.58 760.02 147.135 758.295 150.225C756.585 153.315 754.245 155.73 751.32 157.44C748.38 159.15 745.065 160.02 741.375 160.02H741.36ZM741.27 153.3C743.355 153.3 745.26 152.775 747 151.74C748.74 150.705 750.165 149.145 751.245 147.06C752.34 144.975 752.88 142.425 752.88 139.41C752.88 136.395 752.34 133.785 751.275 131.73C750.21 129.675 748.815 128.13 747.105 127.095C745.395 126.06 743.49 125.535 741.405 125.535C739.32 125.535 737.4 126.06 735.63 127.095C733.86 128.13 732.45 129.675 731.385 131.73C730.32 133.785 729.78 136.35 729.78 139.41C729.78 142.47 730.305 144.975 731.385 147.06C732.465 149.145 733.845 150.705 735.555 151.74C737.265 152.775 739.17 153.3 741.255 153.3H741.27Z" fill="white"/>
<path d="M765.3 159.075V119.76H772.32L772.95 127.17C773.88 125.4 775.05 123.915 776.415 122.685C777.795 121.47 779.46 120.51 781.41 119.835C783.36 119.16 785.535 118.815 787.92 118.815V127.005H785.115C783.495 127.005 781.965 127.215 780.51 127.635C779.055 128.055 777.78 128.73 776.685 129.66C775.59 130.59 774.72 131.865 774.075 133.44C773.43 135.015 773.1 137.04 773.1 139.485V159.06H765.3V159.075Z" fill="white"/>
<path d="M790.425 159.076V102.916H798.225V159.076H790.425ZM815.145 159.076L797.04 137.551L813.495 119.761H822.855L803.43 140.506L803.355 134.731L824.97 159.076H815.145Z" fill="white"/>
</g>
<path d="M835.453 159.614L833.369 154.909H834.213L835.67 158.361L837.128 154.909H837.972L835.888 159.614H835.453ZM833.216 159.614V154.909H834.034V159.614H833.216ZM837.307 159.614V154.909H838.125V159.614H837.307ZM830.148 159.614V155.318H830.966V159.614H830.148ZM828.716 155.625V154.909H832.398V155.625H828.716Z" fill="white"/>
<path d="M285.069 193.42V191.545H298.16V193.42H292.672V209H290.558V193.42H285.069ZM303.161 201.125V209H301.15V191.545H303.161V197.955H303.331C303.638 197.278 304.098 196.741 304.712 196.344C305.331 195.94 306.155 195.739 307.184 195.739C308.076 195.739 308.857 195.918 309.527 196.276C310.198 196.628 310.718 197.17 311.087 197.903C311.462 198.631 311.65 199.557 311.65 200.682V209H309.638V200.818C309.638 199.778 309.368 198.974 308.828 198.406C308.294 197.832 307.553 197.545 306.604 197.545C305.945 197.545 305.354 197.685 304.831 197.963C304.314 198.241 303.905 198.648 303.604 199.182C303.309 199.716 303.161 200.364 303.161 201.125ZM320.818 209.273C319.556 209.273 318.468 208.994 317.554 208.438C316.645 207.875 315.943 207.091 315.449 206.085C314.96 205.074 314.716 203.898 314.716 202.557C314.716 201.216 314.96 200.034 315.449 199.011C315.943 197.983 316.63 197.182 317.511 196.608C318.397 196.028 319.431 195.739 320.613 195.739C321.295 195.739 321.968 195.852 322.633 196.08C323.298 196.307 323.903 196.676 324.449 197.188C324.994 197.693 325.429 198.364 325.752 199.199C326.076 200.034 326.238 201.062 326.238 202.284V203.136H316.147V201.398H324.193C324.193 200.659 324.045 200 323.75 199.42C323.46 198.841 323.045 198.384 322.505 198.048C321.971 197.713 321.341 197.545 320.613 197.545C319.812 197.545 319.119 197.744 318.534 198.142C317.954 198.534 317.508 199.045 317.196 199.676C316.883 200.307 316.727 200.983 316.727 201.705V202.864C316.727 203.852 316.897 204.69 317.238 205.378C317.585 206.06 318.065 206.58 318.679 206.938C319.292 207.29 320.005 207.466 320.818 207.466C321.346 207.466 321.824 207.392 322.25 207.244C322.681 207.091 323.054 206.864 323.366 206.562C323.679 206.256 323.92 205.875 324.091 205.42L326.034 205.966C325.829 206.625 325.485 207.205 325.002 207.705C324.52 208.199 323.923 208.585 323.213 208.864C322.502 209.136 321.704 209.273 320.818 209.273ZM341.366 209.273C340.184 209.273 339.147 208.991 338.255 208.429C337.369 207.866 336.676 207.08 336.176 206.068C335.681 205.057 335.434 203.875 335.434 202.523C335.434 201.159 335.681 199.969 336.176 198.952C336.676 197.935 337.369 197.145 338.255 196.582C339.147 196.02 340.184 195.739 341.366 195.739C342.548 195.739 343.582 196.02 344.468 196.582C345.36 197.145 346.054 197.935 346.548 198.952C347.048 199.969 347.298 201.159 347.298 202.523C347.298 203.875 347.048 205.057 346.548 206.068C346.054 207.08 345.36 207.866 344.468 208.429C343.582 208.991 342.548 209.273 341.366 209.273ZM341.366 207.466C342.264 207.466 343.002 207.236 343.582 206.776C344.162 206.315 344.591 205.71 344.869 204.96C345.147 204.21 345.287 203.398 345.287 202.523C345.287 201.648 345.147 200.832 344.869 200.077C344.591 199.321 344.162 198.71 343.582 198.244C343.002 197.778 342.264 197.545 341.366 197.545C340.468 197.545 339.73 197.778 339.15 198.244C338.571 198.71 338.142 199.321 337.863 200.077C337.585 200.832 337.446 201.648 337.446 202.523C337.446 203.398 337.585 204.21 337.863 204.96C338.142 205.71 338.571 206.315 339.15 206.776C339.73 207.236 340.468 207.466 341.366 207.466ZM350.368 213.909V195.909H352.311V197.989H352.55C352.698 197.761 352.902 197.472 353.164 197.119C353.431 196.761 353.811 196.443 354.306 196.165C354.806 195.881 355.482 195.739 356.334 195.739C357.436 195.739 358.408 196.014 359.249 196.565C360.09 197.116 360.746 197.898 361.218 198.909C361.689 199.92 361.925 201.114 361.925 202.489C361.925 203.875 361.689 205.077 361.218 206.094C360.746 207.105 360.093 207.889 359.257 208.446C358.422 208.997 357.459 209.273 356.368 209.273C355.527 209.273 354.854 209.134 354.348 208.855C353.843 208.571 353.453 208.25 353.181 207.892C352.908 207.528 352.698 207.227 352.55 206.989H352.38V213.909H350.368ZM352.346 202.455C352.346 203.443 352.49 204.315 352.78 205.071C353.07 205.821 353.493 206.409 354.05 206.835C354.607 207.256 355.289 207.466 356.096 207.466C356.936 207.466 357.638 207.244 358.201 206.801C358.769 206.352 359.195 205.75 359.479 204.994C359.769 204.233 359.914 203.386 359.914 202.455C359.914 201.534 359.772 200.705 359.488 199.966C359.209 199.222 358.786 198.634 358.218 198.202C357.655 197.764 356.948 197.545 356.096 197.545C355.277 197.545 354.59 197.753 354.033 198.168C353.476 198.577 353.056 199.151 352.772 199.889C352.488 200.622 352.346 201.477 352.346 202.455ZM370.482 209.273C369.221 209.273 368.132 208.994 367.218 208.438C366.309 207.875 365.607 207.091 365.113 206.085C364.624 205.074 364.38 203.898 364.38 202.557C364.38 201.216 364.624 200.034 365.113 199.011C365.607 197.983 366.294 197.182 367.175 196.608C368.061 196.028 369.096 195.739 370.277 195.739C370.959 195.739 371.632 195.852 372.297 196.08C372.962 196.307 373.567 196.676 374.113 197.188C374.658 197.693 375.093 198.364 375.417 199.199C375.74 200.034 375.902 201.062 375.902 202.284V203.136H365.811V201.398H373.857C373.857 200.659 373.709 200 373.414 199.42C373.124 198.841 372.709 198.384 372.169 198.048C371.635 197.713 371.005 197.545 370.277 197.545C369.476 197.545 368.783 197.744 368.198 198.142C367.618 198.534 367.172 199.045 366.86 199.676C366.547 200.307 366.391 200.983 366.391 201.705V202.864C366.391 203.852 366.561 204.69 366.902 205.378C367.249 206.06 367.729 206.58 368.343 206.938C368.956 207.29 369.669 207.466 370.482 207.466C371.01 207.466 371.488 207.392 371.914 207.244C372.346 207.091 372.718 206.864 373.03 206.562C373.343 206.256 373.584 205.875 373.755 205.42L375.698 205.966C375.493 206.625 375.15 207.205 374.667 207.705C374.184 208.199 373.587 208.585 372.877 208.864C372.167 209.136 371.368 209.273 370.482 209.273ZM380.973 201.125V209H378.962V195.909H380.905V197.955H381.076C381.382 197.29 381.848 196.756 382.473 196.352C383.098 195.943 383.905 195.739 384.894 195.739C385.78 195.739 386.556 195.92 387.221 196.284C387.885 196.642 388.402 197.188 388.772 197.92C389.141 198.648 389.326 199.568 389.326 200.682V209H387.314V200.818C387.314 199.79 387.047 198.989 386.513 198.415C385.979 197.835 385.246 197.545 384.314 197.545C383.672 197.545 383.098 197.685 382.593 197.963C382.093 198.241 381.698 198.648 381.408 199.182C381.118 199.716 380.973 200.364 380.973 201.125ZM409.024 198.841L407.217 199.352C407.103 199.051 406.936 198.759 406.714 198.474C406.498 198.185 406.203 197.946 405.828 197.759C405.453 197.571 404.973 197.477 404.387 197.477C403.586 197.477 402.919 197.662 402.385 198.031C401.856 198.395 401.592 198.858 401.592 199.42C401.592 199.92 401.774 200.315 402.137 200.605C402.501 200.895 403.069 201.136 403.842 201.33L405.785 201.807C406.956 202.091 407.828 202.526 408.402 203.111C408.975 203.69 409.262 204.437 409.262 205.352C409.262 206.102 409.047 206.773 408.615 207.364C408.189 207.955 407.592 208.42 406.825 208.761C406.058 209.102 405.166 209.273 404.149 209.273C402.814 209.273 401.708 208.983 400.833 208.403C399.958 207.824 399.404 206.977 399.172 205.864L401.081 205.386C401.262 206.091 401.606 206.619 402.112 206.972C402.623 207.324 403.291 207.5 404.115 207.5C405.052 207.5 405.797 207.301 406.348 206.903C406.904 206.5 407.183 206.017 407.183 205.455C407.183 205 407.024 204.619 406.706 204.312C406.387 204 405.899 203.767 405.24 203.614L403.058 203.102C401.859 202.818 400.978 202.378 400.416 201.781C399.859 201.179 399.581 200.426 399.581 199.523C399.581 198.784 399.788 198.131 400.203 197.562C400.623 196.994 401.194 196.548 401.916 196.224C402.643 195.901 403.467 195.739 404.387 195.739C405.683 195.739 406.7 196.023 407.439 196.591C408.183 197.159 408.711 197.909 409.024 198.841ZM417.608 209.273C416.426 209.273 415.39 208.991 414.498 208.429C413.611 207.866 412.918 207.08 412.418 206.068C411.924 205.057 411.676 203.875 411.676 202.523C411.676 201.159 411.924 199.969 412.418 198.952C412.918 197.935 413.611 197.145 414.498 196.582C415.39 196.02 416.426 195.739 417.608 195.739C418.79 195.739 419.824 196.02 420.711 196.582C421.603 197.145 422.296 197.935 422.79 198.952C423.29 199.969 423.54 201.159 423.54 202.523C423.54 203.875 423.29 205.057 422.79 206.068C422.296 207.08 421.603 207.866 420.711 208.429C419.824 208.991 418.79 209.273 417.608 209.273ZM417.608 207.466C418.506 207.466 419.245 207.236 419.824 206.776C420.404 206.315 420.833 205.71 421.111 204.96C421.39 204.21 421.529 203.398 421.529 202.523C421.529 201.648 421.39 200.832 421.111 200.077C420.833 199.321 420.404 198.71 419.824 198.244C419.245 197.778 418.506 197.545 417.608 197.545C416.711 197.545 415.972 197.778 415.392 198.244C414.813 198.71 414.384 199.321 414.105 200.077C413.827 200.832 413.688 201.648 413.688 202.523C413.688 203.398 413.827 204.21 414.105 204.96C414.384 205.71 414.813 206.315 415.392 206.776C415.972 207.236 416.711 207.466 417.608 207.466ZM434.86 203.648V195.909H436.872V209H434.86V206.784H434.724C434.417 207.449 433.94 208.014 433.292 208.48C432.645 208.94 431.826 209.17 430.838 209.17C430.02 209.17 429.292 208.991 428.656 208.634C428.02 208.27 427.52 207.724 427.156 206.997C426.792 206.264 426.61 205.341 426.61 204.227V195.909H428.622V204.091C428.622 205.045 428.889 205.807 429.423 206.375C429.963 206.943 430.65 207.227 431.485 207.227C431.985 207.227 432.494 207.099 433.011 206.844C433.534 206.588 433.971 206.196 434.324 205.668C434.681 205.139 434.86 204.466 434.86 203.648ZM440.556 209V195.909H442.499V197.886H442.635C442.874 197.239 443.306 196.713 443.931 196.31C444.556 195.906 445.26 195.705 446.044 195.705C446.192 195.705 446.377 195.707 446.598 195.713C446.82 195.719 446.988 195.727 447.101 195.739V197.784C447.033 197.767 446.877 197.741 446.632 197.707C446.394 197.668 446.141 197.648 445.874 197.648C445.238 197.648 444.669 197.781 444.169 198.048C443.675 198.31 443.283 198.673 442.993 199.139C442.709 199.599 442.567 200.125 442.567 200.716V209H440.556ZM454.405 209.273C453.178 209.273 452.121 208.983 451.235 208.403C450.348 207.824 449.667 207.026 449.189 206.009C448.712 204.991 448.473 203.83 448.473 202.523C448.473 201.193 448.718 200.02 449.206 199.003C449.701 197.98 450.388 197.182 451.269 196.608C452.155 196.028 453.189 195.739 454.371 195.739C455.292 195.739 456.121 195.909 456.86 196.25C457.598 196.591 458.203 197.068 458.675 197.682C459.147 198.295 459.439 199.011 459.553 199.83H457.542C457.388 199.233 457.047 198.705 456.519 198.244C455.996 197.778 455.292 197.545 454.405 197.545C453.621 197.545 452.934 197.75 452.343 198.159C451.757 198.562 451.3 199.134 450.971 199.872C450.647 200.605 450.485 201.466 450.485 202.455C450.485 203.466 450.644 204.347 450.962 205.097C451.286 205.847 451.74 206.429 452.326 206.844C452.917 207.259 453.61 207.466 454.405 207.466C454.928 207.466 455.402 207.375 455.828 207.193C456.255 207.011 456.615 206.75 456.911 206.409C457.206 206.068 457.417 205.659 457.542 205.182H459.553C459.439 205.955 459.158 206.651 458.709 207.27C458.266 207.884 457.678 208.372 456.945 208.736C456.218 209.094 455.371 209.273 454.405 209.273ZM467.982 209.273C466.721 209.273 465.632 208.994 464.718 208.438C463.809 207.875 463.107 207.091 462.613 206.085C462.124 205.074 461.88 203.898 461.88 202.557C461.88 201.216 462.124 200.034 462.613 199.011C463.107 197.983 463.794 197.182 464.675 196.608C465.561 196.028 466.596 195.739 467.777 195.739C468.459 195.739 469.132 195.852 469.797 196.08C470.462 196.307 471.067 196.676 471.613 197.188C472.158 197.693 472.593 198.364 472.917 199.199C473.24 200.034 473.402 201.062 473.402 202.284V203.136H463.311V201.398H471.357C471.357 200.659 471.209 200 470.914 199.42C470.624 198.841 470.209 198.384 469.669 198.048C469.135 197.713 468.505 197.545 467.777 197.545C466.976 197.545 466.283 197.744 465.698 198.142C465.118 198.534 464.672 199.045 464.36 199.676C464.047 200.307 463.891 200.983 463.891 201.705V202.864C463.891 203.852 464.061 204.69 464.402 205.378C464.749 206.06 465.229 206.58 465.843 206.938C466.456 207.29 467.169 207.466 467.982 207.466C468.51 207.466 468.988 207.392 469.414 207.244C469.846 207.091 470.218 206.864 470.53 206.562C470.843 206.256 471.084 205.875 471.255 205.42L473.198 205.966C472.993 206.625 472.65 207.205 472.167 207.705C471.684 208.199 471.087 208.585 470.377 208.864C469.667 209.136 468.868 209.273 467.982 209.273ZM484.201 209H481.985L488.394 191.545H490.576L496.985 209H494.769L489.553 194.307H489.417L484.201 209ZM485.019 202.182H493.951V204.057H485.019V202.182ZM501.817 191.545V209H499.703V191.545H501.817ZM517.85 209.273C516.623 209.273 515.566 208.983 514.68 208.403C513.794 207.824 513.112 207.026 512.635 206.009C512.157 204.991 511.919 203.83 511.919 202.523C511.919 201.193 512.163 200.02 512.652 199.003C513.146 197.98 513.833 197.182 514.714 196.608C515.6 196.028 516.635 195.739 517.816 195.739C518.737 195.739 519.566 195.909 520.305 196.25C521.044 196.591 521.649 197.068 522.12 197.682C522.592 198.295 522.885 199.011 522.998 199.83H520.987C520.833 199.233 520.493 198.705 519.964 198.244C519.441 197.778 518.737 197.545 517.85 197.545C517.066 197.545 516.379 197.75 515.788 198.159C515.203 198.562 514.745 199.134 514.416 199.872C514.092 200.605 513.93 201.466 513.93 202.455C513.93 203.466 514.089 204.347 514.407 205.097C514.731 205.847 515.186 206.429 515.771 206.844C516.362 207.259 517.055 207.466 517.85 207.466C518.373 207.466 518.848 207.375 519.274 207.193C519.7 207.011 520.061 206.75 520.356 206.409C520.652 206.068 520.862 205.659 520.987 205.182H522.998C522.885 205.955 522.603 206.651 522.154 207.27C521.711 207.884 521.123 208.372 520.39 208.736C519.663 209.094 518.816 209.273 517.85 209.273ZM531.257 209.273C530.075 209.273 529.038 208.991 528.146 208.429C527.26 207.866 526.566 207.08 526.066 206.068C525.572 205.057 525.325 203.875 525.325 202.523C525.325 201.159 525.572 199.969 526.066 198.952C526.566 197.935 527.26 197.145 528.146 196.582C529.038 196.02 530.075 195.739 531.257 195.739C532.439 195.739 533.473 196.02 534.359 196.582C535.251 197.145 535.944 197.935 536.439 198.952C536.939 199.969 537.189 201.159 537.189 202.523C537.189 203.875 536.939 205.057 536.439 206.068C535.944 207.08 535.251 207.866 534.359 208.429C533.473 208.991 532.439 209.273 531.257 209.273ZM531.257 207.466C532.154 207.466 532.893 207.236 533.473 206.776C534.052 206.315 534.481 205.71 534.76 204.96C535.038 204.21 535.177 203.398 535.177 202.523C535.177 201.648 535.038 200.832 534.76 200.077C534.481 199.321 534.052 198.71 533.473 198.244C532.893 197.778 532.154 197.545 531.257 197.545C530.359 197.545 529.62 197.778 529.041 198.244C528.461 198.71 528.032 199.321 527.754 200.077C527.475 200.832 527.336 201.648 527.336 202.523C527.336 203.398 527.475 204.21 527.754 204.96C528.032 205.71 528.461 206.315 529.041 206.776C529.62 207.236 530.359 207.466 531.257 207.466ZM542.779 209L538.791 195.909H540.904L543.734 205.932H543.87L546.666 195.909H548.814L551.575 205.898H551.711L554.541 195.909H556.654L552.666 209H550.689L547.825 198.943H547.62L544.757 209H542.779ZM564.186 209.273C563.005 209.273 561.968 208.991 561.076 208.429C560.189 207.866 559.496 207.08 558.996 206.068C558.502 205.057 558.255 203.875 558.255 202.523C558.255 201.159 558.502 199.969 558.996 198.952C559.496 197.935 560.189 197.145 561.076 196.582C561.968 196.02 563.005 195.739 564.186 195.739C565.368 195.739 566.402 196.02 567.289 196.582C568.181 197.145 568.874 197.935 569.368 198.952C569.868 199.969 570.118 201.159 570.118 202.523C570.118 203.875 569.868 205.057 569.368 206.068C568.874 207.08 568.181 207.866 567.289 208.429C566.402 208.991 565.368 209.273 564.186 209.273ZM564.186 207.466C565.084 207.466 565.823 207.236 566.402 206.776C566.982 206.315 567.411 205.71 567.689 204.96C567.968 204.21 568.107 203.398 568.107 202.523C568.107 201.648 567.968 200.832 567.689 200.077C567.411 199.321 566.982 198.71 566.402 198.244C565.823 197.778 565.084 197.545 564.186 197.545C563.289 197.545 562.55 197.778 561.971 198.244C561.391 198.71 560.962 199.321 560.684 200.077C560.405 200.832 560.266 201.648 560.266 202.523C560.266 203.398 560.405 204.21 560.684 204.96C560.962 205.71 561.391 206.315 561.971 206.776C562.55 207.236 563.289 207.466 564.186 207.466ZM573.189 209V195.909H575.132V197.886H575.268C575.507 197.239 575.939 196.713 576.564 196.31C577.189 195.906 577.893 195.705 578.677 195.705C578.825 195.705 579.01 195.707 579.231 195.713C579.453 195.719 579.62 195.727 579.734 195.739V197.784C579.666 197.767 579.51 197.741 579.265 197.707C579.027 197.668 578.774 197.648 578.507 197.648C577.87 197.648 577.302 197.781 576.802 198.048C576.308 198.31 575.916 198.673 575.626 199.139C575.342 199.599 575.2 200.125 575.2 200.716V209H573.189ZM583.993 204.227L583.959 201.739H584.368L590.096 195.909H592.584L586.482 202.08H586.311L583.993 204.227ZM582.118 209V191.545H584.13V209H582.118ZM590.436 209L585.323 202.523L586.755 201.125L592.993 209H590.436ZM600.123 209.273C598.861 209.273 597.773 208.994 596.858 208.438C595.949 207.875 595.248 207.091 594.753 206.085C594.265 205.074 594.02 203.898 594.02 202.557C594.02 201.216 594.265 200.034 594.753 199.011C595.248 197.983 595.935 197.182 596.816 196.608C597.702 196.028 598.736 195.739 599.918 195.739C600.6 195.739 601.273 195.852 601.938 196.08C602.603 196.307 603.208 196.676 603.753 197.188C604.299 197.693 604.733 198.364 605.057 199.199C605.381 200.034 605.543 201.062 605.543 202.284V203.136H595.452V201.398H603.498C603.498 200.659 603.35 200 603.054 199.42C602.765 198.841 602.35 198.384 601.81 198.048C601.276 197.713 600.645 197.545 599.918 197.545C599.117 197.545 598.424 197.744 597.838 198.142C597.259 198.534 596.813 199.045 596.5 199.676C596.188 200.307 596.032 200.983 596.032 201.705V202.864C596.032 203.852 596.202 204.69 596.543 205.378C596.89 206.06 597.37 206.58 597.983 206.938C598.597 207.29 599.31 207.466 600.123 207.466C600.651 207.466 601.128 207.392 601.554 207.244C601.986 207.091 602.358 206.864 602.671 206.562C602.983 206.256 603.225 205.875 603.395 205.42L605.338 205.966C605.134 206.625 604.79 207.205 604.307 207.705C603.824 208.199 603.228 208.585 602.517 208.864C601.807 209.136 601.009 209.273 600.123 209.273ZM608.603 209V195.909H610.546V197.886H610.682C610.921 197.239 611.353 196.713 611.978 196.31C612.603 195.906 613.307 195.705 614.091 195.705C614.239 195.705 614.424 195.707 614.645 195.713C614.867 195.719 615.034 195.727 615.148 195.739V197.784C615.08 197.767 614.924 197.741 614.679 197.707C614.441 197.668 614.188 197.648 613.921 197.648C613.284 197.648 612.716 197.781 612.216 198.048C611.722 198.31 611.33 198.673 611.04 199.139C610.756 199.599 610.614 200.125 610.614 200.716V209H608.603ZM629.975 195.909V197.614H623.191V195.909H629.975ZM625.169 192.773H627.18V205.25C627.18 205.818 627.262 206.244 627.427 206.528C627.598 206.807 627.814 206.994 628.075 207.091C628.342 207.182 628.623 207.227 628.919 207.227C629.14 207.227 629.322 207.216 629.464 207.193C629.606 207.165 629.72 207.142 629.805 207.125L630.214 208.932C630.078 208.983 629.887 209.034 629.643 209.085C629.399 209.142 629.089 209.17 628.714 209.17C628.146 209.17 627.589 209.048 627.044 208.804C626.504 208.56 626.055 208.188 625.697 207.688C625.345 207.188 625.169 206.557 625.169 205.795V192.773ZM635.294 201.125V209H633.282V191.545H635.294V197.955H635.464C635.771 197.278 636.231 196.741 636.845 196.344C637.464 195.94 638.288 195.739 639.316 195.739C640.208 195.739 640.99 195.918 641.66 196.276C642.331 196.628 642.85 197.17 643.22 197.903C643.595 198.631 643.782 199.557 643.782 200.682V209H641.771V200.818C641.771 199.778 641.501 198.974 640.961 198.406C640.427 197.832 639.686 197.545 638.737 197.545C638.078 197.545 637.487 197.685 636.964 197.963C636.447 198.241 636.038 198.648 635.737 199.182C635.441 199.716 635.294 200.364 635.294 201.125ZM651.314 209.307C650.485 209.307 649.732 209.151 649.056 208.838C648.38 208.52 647.843 208.062 647.445 207.466C647.047 206.864 646.848 206.136 646.848 205.284C646.848 204.534 646.996 203.926 647.292 203.46C647.587 202.989 647.982 202.619 648.476 202.352C648.971 202.085 649.516 201.886 650.113 201.756C650.715 201.619 651.32 201.511 651.928 201.432C652.723 201.33 653.368 201.253 653.863 201.202C654.363 201.145 654.726 201.051 654.953 200.92C655.186 200.79 655.303 200.562 655.303 200.239V200.17C655.303 199.33 655.073 198.676 654.613 198.21C654.158 197.744 653.468 197.511 652.542 197.511C651.581 197.511 650.828 197.722 650.283 198.142C649.738 198.562 649.354 199.011 649.132 199.489L647.223 198.807C647.564 198.011 648.019 197.392 648.587 196.949C649.161 196.5 649.786 196.187 650.462 196.011C651.144 195.83 651.814 195.739 652.473 195.739C652.894 195.739 653.377 195.79 653.922 195.892C654.473 195.989 655.005 196.19 655.516 196.497C656.033 196.804 656.462 197.267 656.803 197.886C657.144 198.506 657.314 199.335 657.314 200.375V209H655.303V207.227H655.201C655.064 207.511 654.837 207.815 654.519 208.139C654.201 208.463 653.777 208.739 653.249 208.966C652.721 209.193 652.076 209.307 651.314 209.307ZM651.621 207.5C652.417 207.5 653.087 207.344 653.632 207.031C654.184 206.719 654.598 206.315 654.877 205.821C655.161 205.327 655.303 204.807 655.303 204.261V202.42C655.218 202.523 655.03 202.616 654.74 202.702C654.456 202.781 654.127 202.852 653.752 202.915C653.382 202.972 653.022 203.023 652.669 203.068C652.323 203.108 652.042 203.142 651.826 203.17C651.303 203.239 650.814 203.349 650.36 203.503C649.911 203.651 649.547 203.875 649.269 204.176C648.996 204.472 648.86 204.875 648.86 205.386C648.86 206.085 649.118 206.614 649.635 206.972C650.158 207.324 650.82 207.5 651.621 207.5ZM666.679 195.909V197.614H659.895V195.909H666.679ZM661.872 192.773H663.883V205.25C663.883 205.818 663.966 206.244 664.13 206.528C664.301 206.807 664.517 206.994 664.778 207.091C665.045 207.182 665.326 207.227 665.622 207.227C665.843 207.227 666.025 207.216 666.167 207.193C666.309 207.165 666.423 207.142 666.508 207.125L666.917 208.932C666.781 208.983 666.591 209.034 666.346 209.085C666.102 209.142 665.792 209.17 665.417 209.17C664.849 209.17 664.292 209.048 663.747 208.804C663.207 208.56 662.758 208.188 662.4 207.688C662.048 207.188 661.872 206.557 661.872 205.795V192.773ZM678.466 191.545V209H676.454V191.545H678.466ZM682.15 209V195.909H684.161V209H682.15ZM683.172 193.727C682.78 193.727 682.442 193.594 682.158 193.327C681.88 193.06 681.74 192.739 681.74 192.364C681.74 191.989 681.88 191.668 682.158 191.401C682.442 191.134 682.78 191 683.172 191C683.564 191 683.9 191.134 684.178 191.401C684.462 191.668 684.604 191.989 684.604 192.364C684.604 192.739 684.462 193.06 684.178 193.327C683.9 193.594 683.564 193.727 683.172 193.727ZM698.549 195.909L693.708 209H691.663L686.822 195.909H689.004L692.618 206.341H692.754L696.368 195.909H698.549ZM706.224 209.273C704.963 209.273 703.875 208.994 702.96 208.438C702.051 207.875 701.349 207.091 700.855 206.085C700.366 205.074 700.122 203.898 700.122 202.557C700.122 201.216 700.366 200.034 700.855 199.011C701.349 197.983 702.037 197.182 702.917 196.608C703.804 196.028 704.838 195.739 706.02 195.739C706.701 195.739 707.375 195.852 708.039 196.08C708.704 196.307 709.309 196.676 709.855 197.188C710.4 197.693 710.835 198.364 711.159 199.199C711.483 200.034 711.645 201.062 711.645 202.284V203.136H701.554V201.398H709.599C709.599 200.659 709.451 200 709.156 199.42C708.866 198.841 708.451 198.384 707.912 198.048C707.377 197.713 706.747 197.545 706.02 197.545C705.218 197.545 704.525 197.744 703.94 198.142C703.36 198.534 702.914 199.045 702.602 199.676C702.289 200.307 702.133 200.983 702.133 201.705V202.864C702.133 203.852 702.304 204.69 702.645 205.378C702.991 206.06 703.471 206.58 704.085 206.938C704.699 207.29 705.412 207.466 706.224 207.466C706.752 207.466 707.23 207.392 707.656 207.244C708.088 207.091 708.46 206.864 708.772 206.562C709.085 206.256 709.326 205.875 709.497 205.42L711.44 205.966C711.235 206.625 710.892 207.205 710.409 207.705C709.926 208.199 709.329 208.585 708.619 208.864C707.909 209.136 707.11 209.273 706.224 209.273ZM723.977 198.841L722.17 199.352C722.056 199.051 721.889 198.759 721.667 198.474C721.451 198.185 721.156 197.946 720.781 197.759C720.406 197.571 719.926 197.477 719.341 197.477C718.539 197.477 717.872 197.662 717.338 198.031C716.809 198.395 716.545 198.858 716.545 199.42C716.545 199.92 716.727 200.315 717.091 200.605C717.454 200.895 718.022 201.136 718.795 201.33L720.738 201.807C721.909 202.091 722.781 202.526 723.355 203.111C723.929 203.69 724.216 204.437 724.216 205.352C724.216 206.102 724 206.773 723.568 207.364C723.142 207.955 722.545 208.42 721.778 208.761C721.011 209.102 720.119 209.273 719.102 209.273C717.767 209.273 716.662 208.983 715.787 208.403C714.912 207.824 714.358 206.977 714.125 205.864L716.034 205.386C716.216 206.091 716.559 206.619 717.065 206.972C717.576 207.324 718.244 207.5 719.068 207.5C720.005 207.5 720.75 207.301 721.301 206.903C721.858 206.5 722.136 206.017 722.136 205.455C722.136 205 721.977 204.619 721.659 204.312C721.341 204 720.852 203.767 720.193 203.614L718.011 203.102C716.812 202.818 715.931 202.378 715.369 201.781C714.812 201.179 714.534 200.426 714.534 199.523C714.534 198.784 714.741 198.131 715.156 197.562C715.576 196.994 716.147 196.548 716.869 196.224C717.596 195.901 718.42 195.739 719.341 195.739C720.636 195.739 721.653 196.023 722.392 196.591C723.136 197.159 723.664 197.909 723.977 198.841ZM739.311 209.273C738.13 209.273 737.093 208.991 736.201 208.429C735.314 207.866 734.621 207.08 734.121 206.068C733.627 205.057 733.38 203.875 733.38 202.523C733.38 201.159 733.627 199.969 734.121 198.952C734.621 197.935 735.314 197.145 736.201 196.582C737.093 196.02 738.13 195.739 739.311 195.739C740.493 195.739 741.527 196.02 742.414 196.582C743.306 197.145 743.999 197.935 744.493 198.952C744.993 199.969 745.243 201.159 745.243 202.523C745.243 203.875 744.993 205.057 744.493 206.068C743.999 207.08 743.306 207.866 742.414 208.429C741.527 208.991 740.493 209.273 739.311 209.273ZM739.311 207.466C740.209 207.466 740.948 207.236 741.527 206.776C742.107 206.315 742.536 205.71 742.814 204.96C743.093 204.21 743.232 203.398 743.232 202.523C743.232 201.648 743.093 200.832 742.814 200.077C742.536 199.321 742.107 198.71 741.527 198.244C740.948 197.778 740.209 197.545 739.311 197.545C738.414 197.545 737.675 197.778 737.096 198.244C736.516 198.71 736.087 199.321 735.809 200.077C735.53 200.832 735.391 201.648 735.391 202.523C735.391 203.398 735.53 204.21 735.809 204.96C736.087 205.71 736.516 206.315 737.096 206.776C737.675 207.236 738.414 207.466 739.311 207.466ZM750.325 201.125V209H748.314V195.909H750.257V197.955H750.427C750.734 197.29 751.2 196.756 751.825 196.352C752.45 195.943 753.257 195.739 754.245 195.739C755.132 195.739 755.907 195.92 756.572 196.284C757.237 196.642 757.754 197.188 758.123 197.92C758.493 198.648 758.677 199.568 758.677 200.682V209H756.666V200.818C756.666 199.79 756.399 198.989 755.865 198.415C755.331 197.835 754.598 197.545 753.666 197.545C753.024 197.545 752.45 197.685 751.944 197.963C751.444 198.241 751.049 198.648 750.76 199.182C750.47 199.716 750.325 200.364 750.325 201.125ZM770.398 213.909C770.057 213.909 769.753 213.881 769.486 213.824C769.219 213.773 769.034 213.722 768.932 213.67L769.444 211.898C769.932 212.023 770.364 212.068 770.739 212.034C771.114 212 771.446 211.832 771.736 211.531C772.032 211.236 772.301 210.756 772.546 210.091L772.921 209.068L768.08 195.909H770.262L773.875 206.341H774.012L777.625 195.909H779.807L774.25 210.909C774 211.585 773.691 212.145 773.321 212.588C772.952 213.037 772.523 213.369 772.034 213.585C771.551 213.801 771.006 213.909 770.398 213.909ZM787.311 209.273C786.13 209.273 785.093 208.991 784.201 208.429C783.314 207.866 782.621 207.08 782.121 206.068C781.627 205.057 781.38 203.875 781.38 202.523C781.38 201.159 781.627 199.969 782.121 198.952C782.621 197.935 783.314 197.145 784.201 196.582C785.093 196.02 786.13 195.739 787.311 195.739C788.493 195.739 789.527 196.02 790.414 196.582C791.306 197.145 791.999 197.935 792.493 198.952C792.993 199.969 793.243 201.159 793.243 202.523C793.243 203.875 792.993 205.057 792.493 206.068C791.999 207.08 791.306 207.866 790.414 208.429C789.527 208.991 788.493 209.273 787.311 209.273ZM787.311 207.466C788.209 207.466 788.948 207.236 789.527 206.776C790.107 206.315 790.536 205.71 790.814 204.96C791.093 204.21 791.232 203.398 791.232 202.523C791.232 201.648 791.093 200.832 790.814 200.077C790.536 199.321 790.107 198.71 789.527 198.244C788.948 197.778 788.209 197.545 787.311 197.545C786.414 197.545 785.675 197.778 785.096 198.244C784.516 198.71 784.087 199.321 783.809 200.077C783.53 200.832 783.391 201.648 783.391 202.523C783.391 203.398 783.53 204.21 783.809 204.96C784.087 205.71 784.516 206.315 785.096 206.776C785.675 207.236 786.414 207.466 787.311 207.466ZM804.564 203.648V195.909H806.575V209H804.564V206.784H804.427C804.12 207.449 803.643 208.014 802.995 208.48C802.348 208.94 801.529 209.17 800.541 209.17C799.723 209.17 798.995 208.991 798.359 208.634C797.723 208.27 797.223 207.724 796.859 206.997C796.495 206.264 796.314 205.341 796.314 204.227V195.909H798.325V204.091C798.325 205.045 798.592 205.807 799.126 206.375C799.666 206.943 800.353 207.227 801.189 207.227C801.689 207.227 802.197 207.099 802.714 206.844C803.237 206.588 803.674 206.196 804.027 205.668C804.385 205.139 804.564 204.466 804.564 203.648ZM810.259 209V195.909H812.202V197.886H812.338C812.577 197.239 813.009 196.713 813.634 196.31C814.259 195.906 814.963 195.705 815.748 195.705C815.895 195.705 816.08 195.707 816.301 195.713C816.523 195.719 816.691 195.727 816.804 195.739V197.784C816.736 197.767 816.58 197.741 816.336 197.707C816.097 197.668 815.844 197.648 815.577 197.648C814.941 197.648 814.373 197.781 813.873 198.048C813.378 198.31 812.986 198.673 812.696 199.139C812.412 199.599 812.27 200.125 812.27 200.716V209H810.259ZM830.882 209.273C829.791 209.273 828.828 208.997 827.993 208.446C827.157 207.889 826.504 207.105 826.032 206.094C825.561 205.077 825.325 203.875 825.325 202.489C825.325 201.114 825.561 199.92 826.032 198.909C826.504 197.898 827.16 197.116 828.001 196.565C828.842 196.014 829.814 195.739 830.916 195.739C831.768 195.739 832.441 195.881 832.936 196.165C833.436 196.443 833.816 196.761 834.078 197.119C834.345 197.472 834.552 197.761 834.7 197.989H834.87V191.545H836.882V209H834.939V206.989H834.7C834.552 207.227 834.342 207.528 834.069 207.892C833.797 208.25 833.407 208.571 832.902 208.855C832.396 209.134 831.723 209.273 830.882 209.273ZM831.154 207.466C831.961 207.466 832.643 207.256 833.2 206.835C833.757 206.409 834.18 205.821 834.47 205.071C834.76 204.315 834.904 203.443 834.904 202.455C834.904 201.477 834.762 200.622 834.478 199.889C834.194 199.151 833.774 198.577 833.217 198.168C832.66 197.753 831.973 197.545 831.154 197.545C830.302 197.545 829.592 197.764 829.024 198.202C828.461 198.634 828.038 199.222 827.754 199.966C827.475 200.705 827.336 201.534 827.336 202.455C827.336 203.386 827.478 204.233 827.762 204.994C828.052 205.75 828.478 206.352 829.041 206.801C829.609 207.244 830.314 207.466 831.154 207.466ZM846.333 209.273C845.072 209.273 843.984 208.994 843.069 208.438C842.16 207.875 841.458 207.091 840.964 206.085C840.475 205.074 840.231 203.898 840.231 202.557C840.231 201.216 840.475 200.034 840.964 199.011C841.458 197.983 842.146 197.182 843.027 196.608C843.913 196.028 844.947 195.739 846.129 195.739C846.811 195.739 847.484 195.852 848.149 196.08C848.814 196.307 849.419 196.676 849.964 197.188C850.51 197.693 850.944 198.364 851.268 199.199C851.592 200.034 851.754 201.062 851.754 202.284V203.136H841.663V201.398H849.708C849.708 200.659 849.561 200 849.265 199.42C848.975 198.841 848.561 198.384 848.021 198.048C847.487 197.713 846.856 197.545 846.129 197.545C845.328 197.545 844.635 197.744 844.049 198.142C843.47 198.534 843.024 199.045 842.711 199.676C842.399 200.307 842.243 200.983 842.243 201.705V202.864C842.243 203.852 842.413 204.69 842.754 205.378C843.1 206.06 843.581 206.58 844.194 206.938C844.808 207.29 845.521 207.466 846.333 207.466C846.862 207.466 847.339 207.392 847.765 207.244C848.197 207.091 848.569 206.864 848.882 206.562C849.194 206.256 849.436 205.875 849.606 205.42L851.549 205.966C851.345 206.625 851.001 207.205 850.518 207.705C850.035 208.199 849.439 208.585 848.728 208.864C848.018 209.136 847.22 209.273 846.333 209.273ZM864.086 198.841L862.279 199.352C862.166 199.051 861.998 198.759 861.777 198.474C861.561 198.185 861.265 197.946 860.89 197.759C860.515 197.571 860.035 197.477 859.45 197.477C858.649 197.477 857.981 197.662 857.447 198.031C856.919 198.395 856.654 198.858 856.654 199.42C856.654 199.92 856.836 200.315 857.2 200.605C857.564 200.895 858.132 201.136 858.904 201.33L860.848 201.807C862.018 202.091 862.89 202.526 863.464 203.111C864.038 203.69 864.325 204.437 864.325 205.352C864.325 206.102 864.109 206.773 863.677 207.364C863.251 207.955 862.654 208.42 861.887 208.761C861.12 209.102 860.228 209.273 859.211 209.273C857.876 209.273 856.771 208.983 855.896 208.403C855.021 207.824 854.467 206.977 854.234 205.864L856.143 205.386C856.325 206.091 856.669 206.619 857.174 206.972C857.686 207.324 858.353 207.5 859.177 207.5C860.115 207.5 860.859 207.301 861.41 206.903C861.967 206.5 862.245 206.017 862.245 205.455C862.245 205 862.086 204.619 861.768 204.312C861.45 204 860.961 203.767 860.302 203.614L858.12 203.102C856.922 202.818 856.041 202.378 855.478 201.781C854.922 201.179 854.643 200.426 854.643 199.523C854.643 198.784 854.85 198.131 855.265 197.562C855.686 196.994 856.257 196.548 856.978 196.224C857.706 195.901 858.529 195.739 859.45 195.739C860.745 195.739 861.762 196.023 862.501 196.591C863.245 197.159 863.774 197.909 864.086 198.841ZM869.228 204.227L869.194 201.739H869.603L875.33 195.909H877.819L871.716 202.08H871.546L869.228 204.227ZM867.353 209V191.545H869.364V209H867.353ZM875.671 209L870.557 202.523L871.989 201.125L878.228 209H875.671ZM886.1 195.909V197.614H879.316V195.909H886.1ZM881.294 192.773H883.305V205.25C883.305 205.818 883.387 206.244 883.552 206.528C883.723 206.807 883.939 206.994 884.2 207.091C884.467 207.182 884.748 207.227 885.044 207.227C885.265 207.227 885.447 207.216 885.589 207.193C885.731 207.165 885.845 207.142 885.93 207.125L886.339 208.932C886.203 208.983 886.012 209.034 885.768 209.085C885.524 209.142 885.214 209.17 884.839 209.17C884.271 209.17 883.714 209.048 883.169 208.804C882.629 208.56 882.18 208.188 881.822 207.688C881.47 207.188 881.294 206.557 881.294 205.795V192.773ZM894.304 209.273C893.122 209.273 892.085 208.991 891.193 208.429C890.306 207.866 889.613 207.08 889.113 206.068C888.619 205.057 888.372 203.875 888.372 202.523C888.372 201.159 888.619 199.969 889.113 198.952C889.613 197.935 890.306 197.145 891.193 196.582C892.085 196.02 893.122 195.739 894.304 195.739C895.485 195.739 896.52 196.02 897.406 196.582C898.298 197.145 898.991 197.935 899.485 198.952C899.985 199.969 900.235 201.159 900.235 202.523C900.235 203.875 899.985 205.057 899.485 206.068C898.991 207.08 898.298 207.866 897.406 208.429C896.52 208.991 895.485 209.273 894.304 209.273ZM894.304 207.466C895.201 207.466 895.94 207.236 896.52 206.776C897.099 206.315 897.528 205.71 897.806 204.96C898.085 204.21 898.224 203.398 898.224 202.523C898.224 201.648 898.085 200.832 897.806 200.077C897.528 199.321 897.099 198.71 896.52 198.244C895.94 197.778 895.201 197.545 894.304 197.545C893.406 197.545 892.667 197.778 892.088 198.244C891.508 198.71 891.079 199.321 890.801 200.077C890.522 200.832 890.383 201.648 890.383 202.523C890.383 203.398 890.522 204.21 890.801 204.96C891.079 205.71 891.508 206.315 892.088 206.776C892.667 207.236 893.406 207.466 894.304 207.466ZM903.306 213.909V195.909H905.249V197.989H905.488C905.635 197.761 905.84 197.472 906.101 197.119C906.368 196.761 906.749 196.443 907.243 196.165C907.743 195.881 908.419 195.739 909.272 195.739C910.374 195.739 911.346 196.014 912.186 196.565C913.027 197.116 913.684 197.898 914.155 198.909C914.627 199.92 914.863 201.114 914.863 202.489C914.863 203.875 914.627 205.077 914.155 206.094C913.684 207.105 913.03 207.889 912.195 208.446C911.36 208.997 910.397 209.273 909.306 209.273C908.465 209.273 907.792 209.134 907.286 208.855C906.78 208.571 906.391 208.25 906.118 207.892C905.846 207.528 905.635 207.227 905.488 206.989H905.317V213.909H903.306ZM905.283 202.455C905.283 203.443 905.428 204.315 905.718 205.071C906.007 205.821 906.431 206.409 906.988 206.835C907.544 207.256 908.226 207.466 909.033 207.466C909.874 207.466 910.576 207.244 911.138 206.801C911.706 206.352 912.132 205.75 912.417 204.994C912.706 204.233 912.851 203.386 912.851 202.455C912.851 201.534 912.709 200.705 912.425 199.966C912.147 199.222 911.723 198.634 911.155 198.202C910.593 197.764 909.885 197.545 909.033 197.545C908.215 197.545 907.527 197.753 906.971 198.168C906.414 198.577 905.993 199.151 905.709 199.889C905.425 200.622 905.283 201.477 905.283 202.455Z" fill="#9EADA9"/>
<path d="M638 235H562C555.373 235 550 240.373 550 247C550 253.627 555.373 259 562 259H638C644.627 259 650 253.627 650 247C650 240.373 644.627 235 638 235Z" fill="#22C55E" fill-opacity="0.15"/>
<path d="M564 251C566.209 251 568 249.209 568 247C568 244.791 566.209 243 564 243C561.791 243 560 244.791 560 247C560 249.209 561.791 251 564 251Z" fill="#22C55E"/>
<path d="M566.815 242.273H568.076L571.042 249.517H571.144L574.11 242.273H575.371V251H574.383V244.369H574.298L571.57 251H570.616L567.888 244.369H567.803V251H566.815V242.273ZM578.547 242.273V251H577.49V242.273H578.547ZM580.189 243.21V242.273H586.734V243.21H583.99V251H582.933V243.21H580.189ZM591.74 251V242.273H592.797V250.062H596.854V251H591.74ZM598.354 251V244.455H599.36V251H598.354ZM598.865 243.364C598.669 243.364 598.5 243.297 598.358 243.163C598.219 243.03 598.15 242.869 598.15 242.682C598.15 242.494 598.219 242.334 598.358 242.2C598.5 242.067 598.669 242 598.865 242C599.061 242 599.229 242.067 599.368 242.2C599.51 242.334 599.581 242.494 599.581 242.682C599.581 242.869 599.51 243.03 599.368 243.163C599.229 243.297 599.061 243.364 598.865 243.364ZM603.861 251.136C603.247 251.136 602.719 250.991 602.276 250.702C601.832 250.412 601.491 250.013 601.253 249.504C601.014 248.996 600.895 248.415 600.895 247.761C600.895 247.097 601.017 246.51 601.261 246.001C601.509 245.49 601.852 245.091 602.293 244.804C602.736 244.514 603.253 244.369 603.844 244.369C604.304 244.369 604.719 244.455 605.088 244.625C605.457 244.795 605.76 245.034 605.996 245.341C606.232 245.648 606.378 246.006 606.435 246.415H605.429C605.352 246.116 605.182 245.852 604.918 245.622C604.656 245.389 604.304 245.273 603.861 245.273C603.469 245.273 603.125 245.375 602.83 245.58C602.537 245.781 602.308 246.067 602.143 246.436C601.982 246.803 601.901 247.233 601.901 247.727C601.901 248.233 601.98 248.673 602.139 249.048C602.301 249.423 602.528 249.714 602.821 249.922C603.116 250.129 603.463 250.233 603.861 250.233C604.122 250.233 604.359 250.188 604.572 250.097C604.786 250.006 604.966 249.875 605.114 249.705C605.261 249.534 605.366 249.33 605.429 249.091H606.435C606.378 249.477 606.237 249.825 606.013 250.135C605.791 250.442 605.497 250.686 605.131 250.868C604.767 251.047 604.344 251.136 603.861 251.136ZM610.649 251.136C610.018 251.136 609.474 250.997 609.017 250.719C608.562 250.438 608.212 250.045 607.964 249.543C607.72 249.037 607.598 248.449 607.598 247.778C607.598 247.108 607.72 246.517 607.964 246.006C608.212 245.491 608.555 245.091 608.996 244.804C609.439 244.514 609.956 244.369 610.547 244.369C610.888 244.369 611.224 244.426 611.557 244.54C611.889 244.653 612.192 244.838 612.464 245.094C612.737 245.347 612.955 245.682 613.116 246.099C613.278 246.517 613.359 247.031 613.359 247.642V248.068H608.314V247.199H612.337C612.337 246.83 612.263 246.5 612.115 246.21C611.97 245.92 611.763 245.692 611.493 245.524C611.226 245.357 610.911 245.273 610.547 245.273C610.146 245.273 609.8 245.372 609.507 245.571C609.217 245.767 608.994 246.023 608.838 246.338C608.682 246.653 608.604 246.991 608.604 247.352V247.932C608.604 248.426 608.689 248.845 608.859 249.189C609.033 249.53 609.273 249.79 609.58 249.969C609.886 250.145 610.243 250.233 610.649 250.233C610.913 250.233 611.152 250.196 611.365 250.122C611.581 250.045 611.767 249.932 611.923 249.781C612.08 249.628 612.2 249.437 612.286 249.21L613.257 249.483C613.155 249.812 612.983 250.102 612.741 250.352C612.5 250.599 612.202 250.793 611.847 250.932C611.491 251.068 611.092 251.136 610.649 251.136ZM615.895 247.062V251H614.889V244.455H615.861V245.477H615.946C616.099 245.145 616.332 244.878 616.645 244.676C616.957 244.472 617.361 244.369 617.855 244.369C618.298 244.369 618.686 244.46 619.018 244.642C619.351 244.821 619.609 245.094 619.794 245.46C619.979 245.824 620.071 246.284 620.071 246.841V251H619.065V246.909C619.065 246.395 618.932 245.994 618.665 245.707C618.398 245.418 618.031 245.273 617.565 245.273C617.244 245.273 616.957 245.342 616.705 245.482C616.455 245.621 616.257 245.824 616.112 246.091C615.967 246.358 615.895 246.682 615.895 247.062ZM626.545 245.92L625.642 246.176C625.585 246.026 625.501 245.879 625.39 245.737C625.282 245.592 625.135 245.473 624.947 245.379C624.76 245.286 624.52 245.239 624.227 245.239C623.826 245.239 623.493 245.331 623.225 245.516C622.961 245.697 622.829 245.929 622.829 246.21C622.829 246.46 622.92 246.658 623.102 246.803C623.284 246.947 623.568 247.068 623.954 247.165L624.926 247.403C625.511 247.545 625.947 247.763 626.234 248.055C626.521 248.345 626.664 248.719 626.664 249.176C626.664 249.551 626.556 249.886 626.341 250.182C626.127 250.477 625.829 250.71 625.446 250.881C625.062 251.051 624.616 251.136 624.108 251.136C623.44 251.136 622.887 250.991 622.45 250.702C622.012 250.412 621.735 249.989 621.619 249.432L622.574 249.193C622.664 249.545 622.836 249.81 623.089 249.986C623.345 250.162 623.679 250.25 624.091 250.25C624.559 250.25 624.931 250.151 625.207 249.952C625.485 249.75 625.625 249.509 625.625 249.227C625.625 249 625.545 248.81 625.386 248.656C625.227 248.5 624.983 248.384 624.653 248.307L623.562 248.051C622.963 247.909 622.522 247.689 622.241 247.391C621.963 247.089 621.824 246.713 621.824 246.261C621.824 245.892 621.927 245.565 622.135 245.281C622.345 244.997 622.63 244.774 622.991 244.612C623.355 244.45 623.767 244.369 624.227 244.369C624.875 244.369 625.383 244.511 625.752 244.795C626.125 245.08 626.389 245.455 626.545 245.92ZM630.923 251.136C630.292 251.136 629.748 250.997 629.29 250.719C628.836 250.438 628.485 250.045 628.238 249.543C627.994 249.037 627.871 248.449 627.871 247.778C627.871 247.108 627.994 246.517 628.238 246.006C628.485 245.491 628.829 245.091 629.269 244.804C629.712 244.514 630.229 244.369 630.82 244.369C631.161 244.369 631.498 244.426 631.83 244.54C632.163 244.653 632.465 244.838 632.738 245.094C633.011 245.347 633.228 245.682 633.39 246.099C633.552 246.517 633.633 247.031 633.633 247.642V248.068H628.587V247.199H632.61C632.61 246.83 632.536 246.5 632.388 246.21C632.244 245.92 632.036 245.692 631.766 245.524C631.499 245.357 631.184 245.273 630.82 245.273C630.42 245.273 630.073 245.372 629.781 245.571C629.491 245.767 629.268 246.023 629.112 246.338C628.955 246.653 628.877 246.991 628.877 247.352V247.932C628.877 248.426 628.962 248.845 629.133 249.189C629.306 249.53 629.546 249.79 629.853 249.969C630.16 250.145 630.516 250.233 630.923 250.233C631.187 250.233 631.425 250.196 631.638 250.122C631.854 250.045 632.04 249.932 632.197 249.781C632.353 249.628 632.474 249.437 632.559 249.21L633.531 249.483C633.428 249.812 633.256 250.102 633.015 250.352C632.773 250.599 632.475 250.793 632.12 250.932C631.765 251.068 631.366 251.136 630.923 251.136Z" fill="#22C55E"/>
</g>
<defs>
<clipPath id="clip0_79_78">
<rect width="1200" height="300" fill="white"/>
</clipPath>
</defs>
</svg>
